<svg width="130" height="48" viewBox="0 0 130 48" fill="none" xmlns="http://www.w3.org/2000/svg">
<path d="M14.2608 8.192C16.4448 8.248 18.1808 8.63067 19.4688 9.34C20.7755 10.0307 21.7088 10.9267 22.2688 12.028C22.8475 13.1293 23.1368 14.3333 23.1368 15.64C23.1368 16.48 22.9875 17.3387 22.6888 18.216C22.4088 19.0933 21.9235 19.9053 21.2328 20.652C20.5608 21.38 19.6555 21.9773 18.5168 22.444C17.3782 22.9107 15.9595 23.1627 14.2608 23.2V26.28H10.4528V23.2C8.7355 23.1627 7.29817 22.9107 6.14083 22.444C5.00217 21.9773 4.09683 21.3707 3.42483 20.624C2.75283 19.8773 2.27683 19.0747 1.99683 18.216C1.71683 17.3387 1.57683 16.48 1.57683 15.64C1.57683 14.3333 1.85683 13.1293 2.41683 12.028C2.9955 10.9267 3.92883 10.0307 5.21683 9.34C6.5235 8.63067 8.26883 8.248 10.4528 8.192V5.728H14.2608V8.192ZM10.4528 11.496C8.64217 11.5707 7.37283 11.9907 6.64483 12.756C5.91683 13.5027 5.55283 14.4547 5.55283 15.612C5.55283 16.8627 5.94483 17.88 6.72883 18.664C7.51283 19.4293 8.75417 19.8493 10.4528 19.924V11.496ZM14.2608 19.924C15.9782 19.8493 17.2195 19.4293 17.9848 18.664C18.7688 17.88 19.1608 16.8627 19.1608 15.612C19.1608 14.4547 18.7968 13.5027 18.0688 12.756C17.3595 11.9907 16.0902 11.5707 14.2608 11.496V19.924ZM33.3107 6.008C35.8867 6.008 37.7627 6.568 38.9387 7.688C40.1333 8.78933 40.7307 10.3107 40.7307 12.252C40.7307 13.4093 40.488 14.5013 40.0027 15.528C39.5173 16.536 38.7053 17.348 37.5667 17.964C36.4467 18.58 34.916 18.888 32.9747 18.888H31.1547V26H26.9267V6.008H33.3107ZM33.0867 9.48H31.1547V15.416H32.5547C33.7493 15.416 34.692 15.1827 35.3827 14.716C36.092 14.2307 36.4467 13.456 36.4467 12.392C36.4467 10.4507 35.3267 9.48 33.0867 9.48ZM56.0167 26H44.5087V6.008H56.0167V9.48H48.7367V13.876H55.5127V17.348H48.7367V22.5H56.0167V26ZM85.3207 26H60.1767V6.008H64.4047V22.472H70.6207V6.008H74.8767V22.472H81.0927V6.008H85.3207V26ZM108.508 15.976C108.508 18.048 108.163 19.8587 107.472 21.408C106.8 22.9387 105.764 24.1333 104.364 24.992C102.964 25.8507 101.172 26.28 98.9882 26.28C96.8228 26.28 95.0308 25.8507 93.6122 24.992C92.2122 24.1333 91.1668 22.9293 90.4762 21.38C89.8042 19.8307 89.4682 18.02 89.4682 15.948C89.4682 13.876 89.8042 12.0747 90.4762 10.544C91.1668 9.01333 92.2122 7.828 93.6122 6.988C95.0308 6.12933 96.8322 5.7 99.0162 5.7C101.182 5.7 102.964 6.12933 104.364 6.988C105.764 7.828 106.8 9.02267 107.472 10.572C108.163 12.1027 108.508 13.904 108.508 15.976ZM93.9202 15.976C93.9202 18.0667 94.3215 19.7187 95.1242 20.932C95.9268 22.1267 97.2148 22.724 98.9882 22.724C100.799 22.724 102.096 22.1267 102.88 20.932C103.664 19.7187 104.056 18.0667 104.056 15.976C104.056 13.8667 103.664 12.2147 102.88 11.02C102.096 9.82533 100.808 9.228 99.0162 9.228C97.2242 9.228 95.9268 9.82533 95.1242 11.02C94.3215 12.2147 93.9202 13.8667 93.9202 15.976ZM128.945 26H124.129L116.877 15.864V26H112.649V6.008H116.877V15.696L124.045 6.008H128.553L121.273 15.612L128.945 26Z" fill="white"/>
<path d="M19.1164 39.704C19.1164 40.592 18.9684 41.368 18.6724 42.032C18.3844 42.688 17.9404 43.2 17.3404 43.568C16.7404 43.936 15.9724 44.12 15.0364 44.12C14.1084 44.12 13.3404 43.936 12.7324 43.568C12.1324 43.2 11.6844 42.684 11.3884 42.02C11.1004 41.356 10.9564 40.58 10.9564 39.692C10.9564 38.804 11.1004 38.032 11.3884 37.376C11.6844 36.72 12.1324 36.212 12.7324 35.852C13.3404 35.484 14.1124 35.3 15.0484 35.3C15.9764 35.3 16.7404 35.484 17.3404 35.852C17.9404 36.212 18.3844 36.724 18.6724 37.388C18.9684 38.044 19.1164 38.816 19.1164 39.704ZM12.8644 39.704C12.8644 40.6 13.0364 41.308 13.3804 41.828C13.7244 42.34 14.2764 42.596 15.0364 42.596C15.8124 42.596 16.3684 42.34 16.7044 41.828C17.0404 41.308 17.2084 40.6 17.2084 39.704C17.2084 38.8 17.0404 38.092 16.7044 37.58C16.3684 37.068 15.8164 36.812 15.0484 36.812C14.2804 36.812 13.7244 37.068 13.3804 37.58C13.0364 38.092 12.8644 38.8 12.8644 39.704ZM27.9112 44H26.0992V40.304H22.7032V44H20.8912V35.432H22.7032V38.792H26.0992V35.432H27.9112V44ZM36.847 44H35.035V36.944H32.935C32.887 37.312 32.835 37.712 32.779 38.144C32.731 38.576 32.675 39.016 32.611 39.464C32.555 39.904 32.495 40.324 32.431 40.724C32.367 41.116 32.303 41.464 32.239 41.768C32.135 42.264 31.995 42.688 31.819 43.04C31.651 43.392 31.415 43.66 31.111 43.844C30.815 44.028 30.427 44.12 29.947 44.12C29.635 44.12 29.347 44.076 29.083 43.988V42.5C29.187 42.532 29.287 42.56 29.383 42.584C29.487 42.608 29.599 42.62 29.719 42.62C29.951 42.62 30.127 42.5 30.247 42.26C30.375 42.012 30.503 41.552 30.631 40.88C30.679 40.624 30.747 40.224 30.835 39.68C30.923 39.136 31.019 38.5 31.123 37.772C31.235 37.036 31.339 36.256 31.435 35.432H36.847V44ZM44.2524 44L43.6284 41.96H40.5084L39.8844 44H37.9284L40.9524 35.396H43.1724L46.2084 44H44.2524ZM42.5724 38.444C42.5324 38.308 42.4804 38.136 42.4164 37.928C42.3524 37.72 42.2884 37.508 42.2244 37.292C42.1604 37.076 42.1084 36.888 42.0684 36.728C42.0284 36.888 41.9724 37.088 41.9004 37.328C41.8364 37.56 41.7724 37.784 41.7084 38C41.6524 38.208 41.6084 38.356 41.5764 38.444L40.9644 40.436H43.1964L42.5724 38.444ZM54.1936 32.612C54.1536 33.028 54.0376 33.396 53.8456 33.716C53.6536 34.028 53.3536 34.272 52.9456 34.448C52.5376 34.624 51.9896 34.712 51.3016 34.712C50.5976 34.712 50.0456 34.628 49.6456 34.46C49.2536 34.284 48.9736 34.04 48.8056 33.728C48.6376 33.416 48.5376 33.044 48.5056 32.612H50.1016C50.1416 33.052 50.2536 33.344 50.4376 33.488C50.6216 33.632 50.9216 33.704 51.3376 33.704C51.6816 33.704 51.9616 33.628 52.1776 33.476C52.4016 33.316 52.5336 33.028 52.5736 32.612H54.1936ZM47.2936 35.432H48.9256V39.572C48.9256 39.772 48.9216 39.996 48.9136 40.244C48.9056 40.492 48.8976 40.736 48.8896 40.976C48.8816 41.208 48.8736 41.412 48.8656 41.588C48.8576 41.756 48.8496 41.872 48.8416 41.936H48.8776L52.8376 35.432H55.0096V44H53.3896V39.884C53.3896 39.668 53.3936 39.432 53.4016 39.176C53.4096 38.912 53.4176 38.66 53.4256 38.42C53.4416 38.18 53.4536 37.972 53.4616 37.796C53.4776 37.612 53.4896 37.492 53.4976 37.436H53.4496L49.4776 44H47.2936V35.432ZM64.1925 44H62.3805V40.304H58.9845V44H57.1725V35.432H58.9845V38.792H62.3805V35.432H64.1925V44ZM65.8562 41.426C65.8282 41.322 65.8102 41.21 65.8022 41.09C65.7942 40.97 65.7902 40.868 65.7902 40.784C65.7902 40.7 65.7942 40.598 65.8022 40.478C65.8102 40.358 65.8282 40.244 65.8562 40.136H69.0422C69.0702 40.244 69.0882 40.358 69.0962 40.478C69.1042 40.598 69.1082 40.7 69.1082 40.784C69.1082 40.868 69.1042 40.97 69.0962 41.09C69.0882 41.21 69.0702 41.322 69.0422 41.426H65.8562ZM74.3316 44L72.2676 37.28H72.2196C72.2276 37.44 72.2396 37.68 72.2556 38C72.2716 38.32 72.2876 38.664 72.3036 39.032C72.3196 39.392 72.3276 39.72 72.3276 40.016V44H70.7076V35.432H73.1796L75.2076 41.984H75.2436L77.3916 35.432H79.8636V44H78.1716V39.944C78.1716 39.672 78.1756 39.36 78.1836 39.008C78.1996 38.656 78.2116 38.324 78.2196 38.012C78.2356 37.692 78.2476 37.452 78.2556 37.292H78.2076L75.9996 44H74.3316ZM87.2719 44L86.6479 41.96H83.5279L82.9039 44H80.9479L83.9719 35.396H86.1919L89.2279 44H87.2719ZM85.5919 38.444C85.5519 38.308 85.4999 38.136 85.4359 37.928C85.3719 37.72 85.3079 37.508 85.2439 37.292C85.1799 37.076 85.1279 36.888 85.0879 36.728C85.0479 36.888 84.9919 37.088 84.9199 37.328C84.8559 37.56 84.7919 37.784 84.7279 38C84.6719 38.208 84.6279 38.356 84.5959 38.444L83.9839 40.436H86.2159L85.5919 38.444ZM93.0491 35.432C94.1531 35.432 94.9571 35.672 95.4611 36.152C95.9731 36.624 96.2291 37.276 96.2291 38.108C96.2291 38.604 96.1251 39.072 95.9171 39.512C95.7091 39.944 95.3611 40.292 94.8731 40.556C94.3931 40.82 93.7371 40.952 92.9051 40.952H92.1251V44H90.3131V35.432H93.0491ZM92.9531 36.92H92.1251V39.464H92.7251C93.2371 39.464 93.6411 39.364 93.9371 39.164C94.2411 38.956 94.3931 38.624 94.3931 38.168C94.3931 37.336 93.9131 36.92 92.9531 36.92ZM104.832 44H102.768L99.6602 39.656V44H97.8482V35.432H99.6602V39.584L102.732 35.432H104.664L101.544 39.548L104.832 44ZM110.843 44H105.911V35.432H110.843V36.92H107.723V38.804H110.627V40.292H107.723V42.5H110.843V44ZM115.926 44H114.114V36.944H111.786V35.432H118.254V36.944H115.926V44Z" fill="white"/>
</svg>
