<?xml version="1.0" encoding="utf-8"?><svg viewBox="0 0 93 32" xmlns="http://www.w3.org/2000/svg" xmlns:xlink="http://www.w3.org/1999/xlink"><style>:root>svg{display:none}:root>svg:target{display:block}</style><svg viewBox="0 0 32 32" id="facebook" xmlns="http://www.w3.org/2000/svg"><g clip-path="url(#aclip0)"><path d="M21.33 5.313h2.92V.225C23.748.156 22.014 0 19.996 0c-4.212 0-7.098 2.65-7.098 7.519V12H8.25v5.688h4.648V32h5.699V17.69h4.46L23.764 12h-5.17V8.083c.002-1.644.445-2.77 2.735-2.77z"/></g><defs><clipPath id="aclip0"><path d="M0 0h32v32H0z"/></clipPath></defs></svg><svg viewBox="0 0 32 29" id="heart-icon" xmlns="http://www.w3.org/2000/svg"><path d="M29.665 2.777C28.087.987 25.897 0 23.5 0c-3.372 0-5.506 2.014-6.703 3.703-.311.438-.575.878-.797 1.292a12.245 12.245 0 00-.797-1.292C14.006 2.013 11.872 0 8.5 0 6.103 0 3.913.986 2.335 2.777.829 4.486 0 6.774 0 9.22c0 2.662 1.04 5.139 3.272 7.793 1.994 2.373 4.864 4.818 8.187 7.65a385.452 385.452 0 013.883 3.34l.04.035a.935.935 0 001.236 0l.04-.035c1.364-1.193 2.644-2.284 3.883-3.34 3.323-2.832 6.193-5.277 8.187-7.65C30.96 14.36 32 11.883 32 9.22c0-2.446-.83-4.734-2.335-6.443zm-10.34 20.46c-1.068.909-2.167 1.845-3.325 2.852-1.158-1.007-2.257-1.943-3.325-2.853-6.503-5.542-10.8-9.203-10.8-14.016 0-1.99.663-3.837 1.866-5.203A6.258 6.258 0 018.5 1.875c2.57 0 4.232 1.584 5.174 2.912a11.113 11.113 0 011.435 2.854.937.937 0 001.782 0c.15-.461.591-1.662 1.436-2.854.94-1.328 2.602-2.912 5.173-2.912 1.851 0 3.541.76 4.759 2.142 1.203 1.366 1.866 3.213 1.866 5.203 0 4.813-4.297 8.474-10.8 14.016z"/></svg><svg viewBox="0 0 32 31" id="icon-cart" xmlns="http://www.w3.org/2000/svg"><path d="M31.798 4.039a.923.923 0 00-.721-.347H6.509L5.822.715A.923.923 0 004.923 0h-4a.923.923 0 000 1.846H4.19l4.663 20.208c.097.419.47.715.9.715h18.494a.923.923 0 100-1.846h-17.76l-.71-3.077h18.532c.431 0 .806-.3.9-.72l2.77-12.308a.923.923 0 00-.18-.78zM27.569 16H9.35L6.937 5.538h22.987L27.57 16zM13.538 24a3.388 3.388 0 00-3.384 3.385 3.388 3.388 0 003.384 3.384 3.388 3.388 0 003.385-3.384A3.388 3.388 0 0013.538 24zm0 4.923A1.54 1.54 0 0112 27.385c0-.849.69-1.539 1.538-1.539.849 0 1.539.69 1.539 1.539a1.54 1.54 0 01-1.539 1.538zM24.615 24a3.388 3.388 0 00-3.384 3.385 3.388 3.388 0 003.384 3.384A3.388 3.388 0 0028 27.385 3.388 3.388 0 0024.615 24zm0 4.923a1.54 1.54 0 01-1.538-1.538c0-.849.69-1.539 1.538-1.539.849 0 1.539.69 1.539 1.539a1.54 1.54 0 01-1.539 1.538z"/></svg><svg viewBox="0 0 32 32" id="instagram" xmlns="http://www.w3.org/2000/svg"><g clip-path="url(#dclip0)"><path d="M16.005 7.784a8.21 8.21 0 00-8.21 8.21 8.21 8.21 0 008.21 8.211 8.21 8.21 0 008.211-8.21 8.21 8.21 0 00-8.21-8.211zm0 13.54a5.328 5.328 0 01-5.329-5.33 5.328 5.328 0 015.33-5.329 5.328 5.328 0 015.329 5.33 5.327 5.327 0 01-5.33 5.329z"/><path d="M22.597.101c-2.944-.137-10.236-.13-13.182 0C6.825.223 4.54.848 2.7 2.69-.377 5.767.016 9.913.016 15.995c0 6.224-.347 10.274 2.684 13.305 3.09 3.088 7.296 2.684 13.305 2.684 6.166 0 8.294.004 10.474-.84 2.964-1.15 5.201-3.8 5.42-8.559.138-2.945.13-10.236 0-13.182C31.635 3.785 28.62.379 22.597.1zm4.66 27.163C25.24 29.28 22.441 29.1 15.967 29.1c-6.667 0-9.34.099-11.291-1.857-2.247-2.236-1.84-5.827-1.84-11.27 0-7.367-.756-12.673 6.637-13.051 1.699-.06 2.199-.08 6.475-.08l.06.04c7.105 0 12.68-.744 13.015 6.648.076 1.686.093 2.193.093 6.462-.001 6.59.124 9.279-1.859 11.27z"/><path d="M24.541 9.379a1.919 1.919 0 100-3.838 1.919 1.919 0 000 3.838z"/></g><defs><clipPath id="dclip0"><path d="M0 0h32v32H0z"/></clipPath></defs></svg><svg viewBox="0 0 49 29" id="mastercard" xmlns="http://www.w3.org/2000/svg"><g clip-path="url(#eclip0)"><path d="M33.933 0a14.433 14.433 0 00-9.721 3.748A14.442 14.442 0 0014.495.003h-.093C6.444.055 0 6.529 0 14.498c0 8.001 6.494 14.494 14.494 14.494 3.737 0 7.145-1.417 9.716-3.745a14.336 14.336 0 01-1.482-1.584h2.993a14.492 14.492 0 01-1.472 1.553h-.002c-.012.013-.025.021-.037.032a14.44 14.44 0 009.728 3.749c8.005-.003 14.492-6.495 14.49-14.499v-.007C48.429 6.487 41.938-.002 33.933 0zM22.894 5.245h2.755c.406.492.783 1.01 1.125 1.552h-4.915a21.68 21.68 0 011.035-1.552zm-1.891 3.074h6.607c.235.502.443 1.021.625 1.553H20.22c.08-.15.36-.754.783-1.553zM5.917 18.19l.879-5.542-1.983 5.542H3.75l-.138-5.542-.939 5.542H1.184l1.234-7.35H4.67l.079 4.51 1.521-4.51h2.443l-1.217 7.35H5.917zm5.265-.012l.051-.587c-.024.003-.494.709-1.583.709-.57 0-1.49-.311-1.49-1.663 0-1.719 1.402-2.289 2.737-2.289.21 0 .663.038.663.038s.051-.105.051-.389c0-.467-.42-.531-.995-.531-1.013 0-1.682.271-1.682.271l.224-1.33s.812-.34 1.869-.34c.547 0 2.12.058 2.12 1.861l-.606 4.25h-1.359zm5.743-1.872c0 2.051-1.987 1.963-2.334 1.963-1.295 0-1.695-.179-1.732-.189l.206-1.35c.002-.012.65.235 1.371.235.416 0 .956-.041.956-.538 0-.744-1.932-.566-1.932-2.333 0-1.559 1.158-2.015 2.3-2.015.882 0 1.424.121 1.424.121l-.195 1.362s-.837-.069-1.054-.069c-.549 0-.848.12-.848.504-.001.772 1.838.394 1.838 2.309zm2.386.538c.137 0 .292-.047.398-.047l-.193 1.311c-.155.043-.594.199-1.157.203-.719.006-1.23-.396-1.23-1.308 0-.612.877-5.655.911-5.688h1.543l-.157.902h.77l-.197 1.453h-.817l-.434 2.677c-.033.213.026.497.563.497zm3.394-4.797c1.694 0 2.201 1.24 2.201 2.257 0 .407-.204 1.407-.204 1.407h-3.136s-.29 1.235 1.367 1.235c.777 0 1.639-.38 1.639-.38l-.272 1.487s-.498.254-1.63.254c-1.227 0-2.666-.519-2.666-2.699.001-1.889 1.149-3.561 2.701-3.561zm4.087 10.123H21.65c-.313-.5-.605-1.013-.856-1.552h6.843a14.886 14.886 0 01-.845 1.552zm-.345-3.969h-1.584l.963-5.982h1.437l-.138.867s.512-.943 1.203-.943c.201 0 .298.02.298.02-.205.418-.386.801-.574 1.79-1.072-.38-1.154 1.693-1.605 4.248zm6.035-.093s-.83.212-1.35.212c-1.842 0-2.777-1.271-2.777-3.196 0-2.903 1.733-4.449 3.514-4.449.805 0 1.738.378 1.738.378l-.252 1.635s-.631-.441-1.416-.441c-1.05 0-1.992 1.002-1.992 2.823 0 .897.439 1.733 1.535 1.733.521 0 1.276-.379 1.276-.379l-.276 1.684zm3.715.073l.052-.591c-.025.003-.495.709-1.583.709-.57 0-1.49-.311-1.49-1.663 0-1.719 1.402-2.289 2.736-2.289.21 0 .664.038.664.038s.052-.104.052-.388c0-.467-.42-.531-.996-.531-1.013 0-1.681.271-1.681.271l.224-1.33s.812-.34 1.87-.34c.546 0 2.12.058 2.119 1.861l-.606 4.25c-.001.003-1.361.003-1.361.003zm3.207.02H37.82l.963-5.982h1.438l-.138.867s.513-.943 1.204-.943c.201 0 .297.02.297.02-.204.418-.387.801-.574 1.79-1.073-.38-1.155 1.693-1.606 4.248zm4.729-.016l.067-.551s-.512.646-1.438.646c-1.283 0-1.912-1.239-1.912-2.505 0-1.958 1.178-3.665 2.592-3.665.91.002 1.491.805 1.491.805l.334-2.065 1.547-.003-1.18 7.338h-1.501zm3.052-.207a.461.461 0 01-.406.237.471.471 0 01-.404-.237.464.464 0 010-.466.475.475 0 01.404-.236c.08 0 .156.021.23.062a.461.461 0 01.176.64zM47.061 22.4c-.01-.006-.019-.017-.035-.023a.245.245 0 00-.08-.01h-.094v.15h.1c.047 0 .078-.003.096-.02a.066.066 0 00.025-.055.075.075 0 00-.012-.041z"/><path d="M11.022 15.495c-1.13 0-1.36.508-1.36.93 0 .219.125.583.604.583.93 0 1.122-1.218 1.092-1.477-.044-.01-.072-.035-.336-.036zM22.711 13.428c-.841 0-1.003.957-1.003 1.058h1.713c0-.077.161-1.058-.71-1.058zM43.709 13.595c-.68 0-1.216.788-1.215 1.985 0 .73.26 1.198.816 1.198.836 0 1.239-1.091 1.239-1.904 0-.897-.285-1.279-.84-1.279zM47.115 17.552a.377.377 0 00-.146-.145.381.381 0 00-.528.145.403.403 0 00-.053.195c0 .067.018.133.05.194a.409.409 0 00.34.2c.067 0 .133-.02.193-.054a.388.388 0 00.144-.535zm-.217.452l-.045-.078a.404.404 0 00-.084-.118.102.102 0 00-.066-.019h-.046v.214h-.084v-.504h.175c.059 0 .103.005.128.016a.143.143 0 01.064.048.116.116 0 01.023.074.136.136 0 01-.04.096c-.026.029-.062.041-.104.046.02.008.033.017.043.026a.51.51 0 01.074.099l.062.1h-.1zM36.039 15.495c-1.131 0-1.36.508-1.36.93 0 .219.124.583.604.583.929 0 1.121-1.218 1.092-1.477-.045-.01-.073-.035-.336-.036z"/><path d="M46.864 17.602a.091.091 0 00-.034-.025.283.283 0 00-.082-.01h-.091v.153h.099c.047 0 .078-.006.097-.021a.078.078 0 00.024-.056.067.067 0 00-.013-.041z"/></g><defs><clipPath id="eclip0"><path d="M0 0h49v29H0z"/></clipPath></defs></svg><svg viewBox="0 0 32 32" id="telegram" xmlns="http://www.w3.org/2000/svg"><g clip-path="url(#fclip0)"><path d="M12.556 20.241l-.53 7.446c.758 0 1.086-.326 1.48-.716l3.55-3.393 7.357 5.387c1.35.753 2.3.357 2.664-1.24l4.83-22.63.001-.002c.428-1.994-.721-2.774-2.036-2.285L1.485 13.676c-1.937.752-1.908 1.832-.329 2.322l7.257 2.257L25.271 7.707c.793-.526 1.514-.235.921.29L12.556 20.241z"/></g><defs><clipPath id="fclip0"><path d="M0 0h32v32H0z"/></clipPath></defs></svg><svg viewBox="0 0 25 32" id="user-icon" xmlns="http://www.w3.org/2000/svg"><path d="M22.678 19.943a12.5 12.5 0 00-4.085-3.779 9.242 9.242 0 003.093-6.902C21.686 4.155 17.531 0 12.424 0S3.162 4.155 3.162 9.262a9.242 9.242 0 003.092 6.902 12.5 12.5 0 00-4.085 3.779A12.322 12.322 0 000 26.936V32h24.848v-5.064c0-2.505-.75-4.923-2.17-6.993zM5.101 9.263c0-4.039 3.285-7.324 7.323-7.324s7.323 3.285 7.323 7.323-3.285 7.323-7.323 7.323S5.1 13.3 5.1 9.262zM1.939 30.06v-3.125c0-4.109 2.38-7.794 6.101-9.516a9.205 9.205 0 004.384 1.104c1.585 0 3.078-.4 4.383-1.104 3.721 1.722 6.101 5.407 6.101 9.516v3.125H1.94z"/></svg><svg viewBox="0 0 93 29" id="visa" xmlns="http://www.w3.org/2000/svg"><path d="M37.109.474l-4.71 27.58h7.533L44.646.475h-7.537zM26.083.505l-7.378 18.81-.787-2.84C16.463 13.051 12.332 8.137 7.483 5.04l6.746 23.001 7.971-.013L34.063.499l-7.98.006z"/><path d="M15.058 2.479C14.62.799 13.351.298 11.776.238H.096L0 .787c9.089 2.2 15.103 7.501 17.598 13.875L15.058 2.48zM59.913 5.761c2.465-.038 4.251.5 5.638 1.056l.68.319 1.02-5.978C65.759.6 63.42 0 60.502 0c-7.444 0-12.69 3.741-12.731 9.102-.049 3.961 3.737 6.173 6.597 7.494 2.935 1.353 3.92 2.213 3.906 3.422-.023 1.846-2.34 2.693-4.505 2.693-3.016 0-4.619-.416-7.093-1.444l-.97-.441-1.06 6.173c1.763.771 5.016 1.434 8.393 1.47 7.919 0 13.065-3.697 13.119-9.426.033-3.134-1.976-5.525-6.33-7.487-2.635-1.28-4.247-2.131-4.232-3.422 0-1.147 1.368-2.373 4.317-2.373zM86.583.505h-5.82c-1.808 0-3.153.49-3.947 2.289L65.631 28.07h7.91s1.291-3.399 1.584-4.143c.866 0 8.552.012 9.647.012.224.962.918 4.131.918 4.131h6.988L86.583.505zm-9.29 17.777c.62-1.584 3-7.709 3-7.709-.04.076.615-1.595 1.004-2.633l.508 2.378 1.746 7.964h-6.258z"/></svg><svg viewBox="0 0 32 32" id="youtube" xmlns="http://www.w3.org/2000/svg"><g clip-path="url(#iclip0)"><path d="M31.292 7.905l.04.262c-.387-1.372-1.43-2.43-2.757-2.816l-.028-.007c-2.495-.677-12.534-.677-12.534-.677S6 4.653 3.48 5.344A4.058 4.058 0 00.703 8.14l-.007.028c-.932 4.868-.939 10.717.041 15.93l-.041-.265c.387 1.372 1.43 2.43 2.757 2.816l.028.007c2.492.678 12.534.678 12.534.678s10.012 0 12.533-.678a4.058 4.058 0 002.779-2.795l.006-.028c.424-2.264.667-4.87.667-7.53l-.001-.295L32 15.7c0-2.663-.243-5.268-.708-7.795zM12.811 20.868v-9.724l8.354 4.87-8.354 4.854z"/></g><defs><clipPath id="iclip0"><path d="M0 0h32v32H0z"/></clipPath></defs></svg></svg>